<svg id="loading" xmlns="http://www.w3.org/2000/svg" viewBox="0 0 14 14" width="14" height="14" fill="black">
  <path opacity=".1" d="M6.125 0 H8 V3.5 H6.125 z" transform="rotate(0 7 7)">
	  <animate attributeName="opacity" from="1" to=".1" dur="1s" repeatCount="indefinite" begin="0"/>
  </path>
  <path opacity=".1" d="M6.125 0 H8 V3.5 H6.125 z" transform="rotate(45 7 7)">    
	  <animate attributeName="opacity" from="1" to=".1" dur="1s" repeatCount="indefinite" begin="0.125s"/>  
  </path>  
  <path opacity=".1" d="M6.125 0 H8 V3.5 H6.125 z" transform="rotate(90 7 7)">    
	  <animate attributeName="opacity" from="1" to=".1" dur="1s" repeatCount="indefinite" begin="0.25s"/>  
  </path>  
  <path opacity=".1" d="M6.125 0 H8 V3.5 H6.125 z" transform="rotate(135 7 7)">    
	  <animate attributeName="opacity" from="1" to=".1" dur="1s" repeatCount="indefinite" begin="0.375s"/>  
  </path>  
  <path opacity=".1" d="M6.125 0 H8 V3.5 H6.125 z" transform="rotate(170 7 7)">    
	  <animate attributeName="opacity" from="1" to=".1" dur="1s" repeatCount="indefinite" begin="0.5s"/>  
  </path>  
  <path opacity=".1" d="M6.125 0 H8 V3.5 H6.125 z" transform="rotate(225 7 7)">    
	  <animate attributeName="opacity" from="1" to=".1" dur="1s" repeatCount="indefinite" begin="0.675s"/>  
  </path>  
  <path opacity=".1" d="M6.125 0 H8 V3.5 H6.125 z" transform="rotate(270 7 7)">    
	  <animate attributeName="opacity" from="1" to=".1" dur="1s" repeatCount="indefinite" begin="0.75s"/>  
  </path>  
  <path opacity=".1" d="M6.125 0 H8 V3.5 H6.125 z" transform="rotate(315 7 7)">    
	  <animate attributeName="opacity" from="1" to=".1" dur="1s" repeatCount="indefinite" begin="0.875s"/>  
  </path>
</svg>